<svg width="244" height="301" viewBox="0 0 244 301" fill="none" xmlns="http://www.w3.org/2000/svg">
<path d="M208.61 78.3102C208.61 76.7933 208.368 75.2913 207.897 73.8899C207.426 72.4884 206.737 71.2151 205.867 70.1425C204.998 69.0699 203.966 68.2191 202.83 67.6386C201.694 67.0581 200.476 66.7593 199.246 66.7593H44.7536C43.524 66.7593 42.3064 67.0581 41.1704 67.6386C40.0343 68.2191 39.0021 69.0699 38.1326 70.1425C37.2632 71.2151 36.5735 72.4884 36.1029 73.8899C35.6323 75.2913 35.3901 76.7933 35.3901 78.3102V222.69C35.3901 225.753 36.3766 228.691 38.1326 230.858C39.8886 233.024 42.2703 234.241 44.7536 234.241H199.246C201.73 234.241 204.111 233.024 205.867 230.858C207.623 228.691 208.61 225.753 208.61 222.69V78.3102Z" stroke="white" stroke-linecap="round" stroke-linejoin="round"/>
<path d="M193.472 66.7594L190.513 53.114C189.87 50.1555 188.3 47.6333 186.15 46.1021C183.999 44.571 181.444 44.1564 179.045 44.9494L113.063 66.7594M208.61 208.568L214.181 206.724C215.369 206.332 216.483 205.655 217.459 204.732C218.434 203.808 219.253 202.657 219.868 201.343C220.483 200.03 220.883 198.579 221.043 197.075C221.204 195.571 221.123 194.043 220.805 192.577L208.605 136.435M50.5283 234.241L53.4868 247.88C53.8048 249.345 54.3537 250.719 55.1021 251.923C55.8506 253.127 56.7839 254.137 57.8488 254.896C58.9138 255.654 60.0894 256.147 61.3087 256.345C62.528 256.543 63.7669 256.443 64.9548 256.051L130.936 234.241M35.3902 92.4321L29.8188 94.2758C28.6309 94.668 27.5171 95.3451 26.5413 96.2684C25.5655 97.1917 24.7467 98.3431 24.1316 99.6568C23.5165 100.97 23.1172 102.421 22.9566 103.925C22.7959 105.429 22.877 106.957 23.1952 108.423L35.4664 164.91M65.819 101.412H178.176M65.819 134.139H178.176M65.819 166.861H178.176M65.819 199.588H122" stroke="white" stroke-linecap="round" stroke-linejoin="round"/>
</svg>
