<svg width="26" height="27" viewBox="0 0 26 27" fill="none" xmlns="http://www.w3.org/2000/svg">
<path d="M1.66663 4.36905C1.66663 2.71219 2.95381 1.36905 4.54163 1.36905H21.7916C23.3794 1.36905 24.6666 2.71219 24.6666 4.36905V22.369C24.6666 24.0259 23.3794 25.369 21.7916 25.369H4.54163C2.95381 25.369 1.66663 24.0259 1.66663 22.369V4.36905Z" fill="#7C7C7C"/>
<path d="M1.66663 19.369L8.25869 12.4904C9.38145 11.3188 11.2018 11.3188 12.3246 12.4904L18.9166 19.369M16.0416 16.369L18.3212 13.9904C19.444 12.8188 21.2643 12.8188 22.3871 13.9904L24.6666 16.369M16.0416 7.36905H16.056M4.54163 25.369H21.7916C23.3794 25.369 24.6666 24.0259 24.6666 22.369V4.36905C24.6666 2.71219 23.3794 1.36905 21.7916 1.36905H4.54163C2.95381 1.36905 1.66663 2.71219 1.66663 4.36905V22.369C1.66663 24.0259 2.95381 25.369 4.54163 25.369Z" stroke="#E2E2E2" stroke-width="2" stroke-linecap="round" stroke-linejoin="round"/>
</svg>
