<svg width="30" height="30" viewBox="0 0 30 30" fill="none" xmlns="http://www.w3.org/2000/svg">
<g clip-path="url(#clip0_96_207)">
<path fill-rule="evenodd" clip-rule="evenodd" d="M23.75 23.75C24.0686 23.7504 24.375 23.8723 24.6067 24.0911C24.8384 24.3098 24.9778 24.6087 24.9965 24.9267C25.0151 25.2448 24.9116 25.558 24.7072 25.8023C24.5027 26.0466 24.2126 26.2036 23.8962 26.2412L23.75 26.25H15C14.6814 26.2496 14.3749 26.1276 14.1433 25.9089C13.9116 25.6902 13.7722 25.3913 13.7535 25.0733C13.7349 24.7552 13.8383 24.442 14.0428 24.1977C14.2473 23.9534 14.5374 23.7964 14.8537 23.7587L15 23.75H23.75ZM20.12 5.46C20.6925 4.88788 21.4646 4.56017 22.2738 4.54585C23.083 4.53154 23.8662 4.83174 24.4585 5.38326C25.0509 5.93478 25.4061 6.6946 25.4495 7.50278C25.4929 8.31096 25.2211 9.10446 24.6912 9.71625L24.5387 9.87875L10.9187 23.5C10.7997 23.6192 10.6652 23.7218 10.5187 23.805L10.3687 23.88L5.61374 26.0425C4.60374 26.5012 3.56624 25.5212 3.90749 24.5112L3.95749 24.3862L6.11999 19.63C6.18931 19.477 6.27886 19.3341 6.38624 19.205L6.49874 19.08L20.12 5.46ZM22.7712 7.2275C22.6677 7.12415 22.5311 7.06042 22.3854 7.0474C22.2397 7.03438 22.094 7.0729 21.9737 7.15625L21.8875 7.2275L8.34749 20.7675L7.61124 22.3887L9.23124 21.6512L22.7712 8.1125C22.8294 8.05444 22.8756 7.98547 22.9071 7.90954C22.9386 7.83361 22.9549 7.75221 22.9549 7.67C22.9549 7.58779 22.9386 7.50639 22.9071 7.43046C22.8756 7.35453 22.8294 7.28556 22.7712 7.2275Z" fill="white"/>
</g>
<defs>
<clipPath id="clip0_96_207">
<rect width="30" height="30" fill="white"/>
</clipPath>
</defs>
</svg>
